Coordinates
version=1
nRows=48
nColumns=11
inDegrees=yes

Units are S.I. units (second, meters, Newtons, ...)
If the header above contains a line with 'inDegrees', this indicates whether rotational values are in degrees (yes) or radians (no).

endheader
time	pelvis_tilt	pelvis_tx	pelvis_ty	hip_flexion_l	hip_flexion_r	knee_angle_l	knee_angle_r	ankle_angle_l	ankle_angle_r	lumbar_extension
      3.01000000	     -0.08344987	      0.04800192	      0.89327112	     10.35725131	     19.34163675	    -63.37387675	    -28.69248707	     -7.81047700	      4.19471505	     -1.76376859
      3.02000000	     -0.36356039	      0.05833747	      0.89493091	     12.10786331	     18.54510177	    -64.02583568	    -28.04038231	     -7.18216720	      4.43910137	     -1.54084619
      3.03000000	     -0.52695907	      0.06887542	      0.89683633	     13.69253290	     17.54271157	    -64.40723460	    -27.28146316	     -6.33798486	      4.62189392	     -1.40413628
      3.04000000	     -0.65355215	      0.07911853	      0.89877575	     15.24193114	     16.52653444	    -64.56914452	    -26.49893609	     -5.48239211	      4.80167968	     -1.33290786
      3.05000000	     -0.67543038	      0.08928766	      0.90084805	     16.67682451	     15.40132190	    -64.51682161	    -25.70194564	     -4.75474881	      4.82117142	     -1.38506987
      3.06000000	     -0.64193644	      0.09931677	      0.90287523	     18.03283007	     14.27189400	    -64.29483541	    -24.98699761	     -4.07534623	      4.89276548	     -1.52275409
      3.07000000	     -0.57772417	      0.10925413	      0.90479316	     19.35481615	     13.15726892	    -63.92605575	    -24.34912924	     -3.53493819	      4.94380157	     -1.70951902
      3.08000000	     -0.50083449	      0.11900639	      0.90655101	     20.65375023	     12.05604053	    -63.45327952	    -23.71628474	     -2.95378296	      4.94230973	     -1.92726339
      3.09000000	     -0.42264334	      0.12851550	      0.90814980	     21.94667294	     11.05331552	    -62.85863358	    -23.25080539	     -2.30694811	      4.92423474	     -2.17468575
      3.10000000	     -0.36266354	      0.13787890	      0.90960026	     23.23562526	     10.10821829	    -62.16606701	    -22.81647654	     -1.67643985	      4.91131456	     -2.41880781
      3.11000000	     -0.28722785	      0.14717179	      0.91087771	     24.49173672	      9.20380720	    -61.33176519	    -22.44546634	     -1.04090283	      4.77753692	     -2.67095166
      3.12000000	     -0.19972747	      0.15642229	      0.91202643	     25.66742416	      8.32486200	    -60.38003070	    -22.15520034	     -0.58872896	      4.68942924	     -2.94422750
      3.13000000	     -0.08328511	      0.16551053	      0.91309524	     26.79087696	      7.48652838	    -59.30425581	    -21.97924238	     -0.18966107	      4.55162765	     -3.26856667
      3.14000000	      0.02121827	      0.17470543	      0.91396032	     27.85768366	      6.69969155	    -58.04031313	    -21.86918743	      0.04635822	      4.49352818	     -3.53655388
      3.15000000	      0.06056764	      0.18387314	      0.91463166	     28.92351002	      6.02033068	    -56.76267145	    -21.83422117	      0.52995832	      4.39358261	     -3.74784662
      3.16000000	      0.10148991	      0.19296547	      0.91513936	     29.93199867	      5.38457777	    -55.26570662	    -21.87880618	      0.62005329	      4.38527840	     -3.94569029
      3.17000000	      0.18254690	      0.20214216	      0.91554443	     30.83318902	      4.71480415	    -53.68507885	    -21.94770002	      1.04147484	      4.26479469	     -4.18584237
      3.18000000	      0.26999288	      0.21134989	      0.91575877	     31.61865046	      4.04035191	    -51.96902379	    -22.04552099	      1.07428236	      4.25545833	     -4.43056986
      3.19000000	      0.28257704	      0.22031493	      0.91577282	     32.45867120	      3.48473473	    -50.15839267	    -22.16563787	      1.06757257	      4.26031659	     -4.61283875
      3.20000000	      0.33342436	      0.22974508	      0.91562124	     33.16793934	      2.87675837	    -48.29052017	    -22.33920495	      0.79432824	      4.26986330	     -4.77968462
      3.21000000	      0.41159019	      0.23924642	      0.91536802	     33.74590746	      2.21388531	    -46.29552996	    -22.48314993	      0.59415153	      4.38705066	     -4.97686390
      3.22000000	      0.47442513	      0.24884150	      0.91485547	     34.25993621	      1.60055154	    -44.27203419	    -22.71592115	      0.13930163	      4.54693105	     -5.14338300
      3.23000000	      0.47464073	      0.25838930	      0.91421545	     34.74631992	      1.05310467	    -42.09836769	    -22.92621543	     -0.77872512	      4.69975337	     -5.24095353
      3.24000000	      0.55053994	      0.26807803	      0.91351846	     35.06591810	      0.35522116	    -39.87262350	    -23.03107215	     -1.74853169	      4.87146894	     -5.41360484
      3.25000000	      0.57572367	      0.27786372	      0.91259631	     35.35217606	     -0.19518547	    -37.60399605	    -23.33906975	     -2.63824411	      5.06820225	     -5.52516545
      3.26000000	      0.61057832	      0.28775581	      0.91155095	     35.55738153	     -0.78284087	    -35.34529970	    -23.58934840	     -3.13426445	      4.93217078	     -5.63431379
      3.27000000	      0.59291712	      0.29775880	      0.91036513	     35.70123802	     -1.35393461	    -32.99173857	    -23.80243136	     -3.40151167	      5.01382237	     -5.66871266
      3.28000000	      0.57913456	      0.30750154	      0.90911219	     35.79417272	     -1.88170240	    -30.65498145	    -24.07874866	     -3.48588952	      5.16313576	     -5.76232627
      3.29000000	      0.56694829	      0.31799926	      0.90785294	     35.77410628	     -2.54863607	    -28.33726927	    -24.20541958	     -3.53971419	      5.27966147	     -5.74365575
      3.30000000	      0.57533057	      0.32862512	      0.90653722	     35.69263476	     -3.23887747	    -26.15721927	    -24.29677340	     -3.60612351	      5.29827125	     -5.72536044
      3.31000000	      0.53556356	      0.33934725	      0.90517701	     35.60954187	     -3.93619494	    -24.08535274	    -24.31539873	     -3.80722930	      5.30941708	     -5.66489674
      3.32000000	      0.53554669	      0.35017782	      0.90386340	     35.47043217	     -4.80474586	    -22.26202207	    -24.10842671	     -3.95018118	      5.25314922	     -5.65305057
      3.33000000	      0.56507130	      0.36116526	      0.90262212	     35.28544179	     -5.62390246	    -20.71473134	    -24.02359902	     -4.08392386	      5.14756001	     -5.66007435
      3.34000000	      0.55174414	      0.37217287	      0.90119593	     35.18921441	     -6.36981732	    -19.55828266	    -24.01508618	     -4.14320279	      4.88076604	     -5.63133269
      3.35000000	      0.56412644	      0.38334174	      0.89990323	     35.06708532	     -7.14980030	    -18.75822661	    -23.98404571	     -4.19962285	      4.68108821	     -5.62650514
      3.36000000	      0.53934447	      0.39480593	      0.89856244	     34.97816277	     -7.88883328	    -18.32634373	    -23.97949536	     -4.25887602	      4.38731238	     -5.55733843
      3.37000000	      0.44372257	      0.40616459	      0.89714296	     34.98175583	     -8.51425415	    -18.26741779	    -24.00299724	     -4.26341873	      4.03104374	     -5.43343464
      3.38000000	      0.36971600	      0.41784897	      0.89581879	     34.91025566	     -9.17747741	    -18.51995321	    -24.01984323	     -4.23173785	      3.57464662	     -5.30352286
      3.39000000	      0.16226019	      0.42980704	      0.89433966	     34.95244049	     -9.72783307	    -19.08408528	    -23.99031432	     -4.09820715	      2.96276579	     -4.99740308
      3.40000000	      0.04028430	      0.44184029	      0.89308187	     34.86737699	    -10.32881241	    -19.88762819	    -24.01184773	     -4.11663560	      2.23054296	     -4.79593686
      3.41000000	     -0.24678661	      0.45432337	      0.89149493	     34.87972716	    -10.75795376	    -20.90744477	    -24.05482352	     -3.93761097	      1.45546609	     -4.34672860
      3.42000000	     -0.63870433	      0.46637303	      0.89002116	     35.06000450	    -10.98377367	    -21.92184866	    -24.18366007	     -4.80664853	      0.54391409	     -3.86852799
      3.43000000	     -1.28214018	      0.47806524	      0.88896243	     35.81276015	    -10.85164989	    -22.92504938	    -24.35641906	     -6.32402838	     -0.56510397	     -3.17045759
      3.44000000	     -1.85204684	      0.48992556	      0.88793797	     36.81652258	    -10.77053641	    -24.77464061	    -24.56311115	     -5.44948854	     -1.73596917	     -2.51653048
      3.45000000	     -2.23912635	      0.50220185	      0.88719252	     37.81010923	    -10.92402820	    -27.03941986	    -24.70269700	     -4.80813749	     -3.08412092	     -2.00056039
      3.46000000	     -2.45494194	      0.51447447	      0.88660658	     38.49191702	    -11.21385487	    -29.10398235	    -24.90113643	     -4.73721422	     -4.45841878	     -1.69178535
      3.47000000	     -2.51342189	      0.52691234	      0.88632622	     38.72207631	    -11.65358794	    -30.69249871	    -25.08228312	     -4.92032745	     -6.03460022	     -1.54976138
      3.48000000	     -2.53604915	      0.53941313	      0.88618683	     38.69522971	    -12.06444079	    -31.88343111	    -25.36382292	     -5.26086014	     -7.66123617	     -1.46883277
